HIERARCHY
ROOT SpineBase
{
  OFFSET 0.000000 0.000000 0.000000
  CHANNELS 6 Xposition Yposition Zposition Zrotation Xrotation Yrotation
  JOINT SpineMid
  {
    OFFSET -0.000000 30.832707 0.000000
    CHANNELS 3 Zrotation Xrotation Yrotation
    JOINT SpineShoulder
    {
      OFFSET -0.009826 22.753061 -0.757772
      CHANNELS 3 Zrotation Xrotation Yrotation
      JOINT Neck
      {
        OFFSET -0.001339 7.474530 -0.566031
        CHANNELS 3 Zrotation Xrotation Yrotation
        JOINT Head
        {
          OFFSET 0.161452 12.899493 -1.751517
          CHANNELS 3 Zrotation Xrotation Yrotation
          End Site
          {
            OFFSET 0 0 0
          }
        }
      }
      JOINT ShoulderLeft
      {
        OFFSET -16.695154 -4.009284 -1.145907
        CHANNELS 3 Zrotation Xrotation Yrotation
        JOINT ElbowLeft
        {
          OFFSET -0.982777 -28.063526 -1.596620
          CHANNELS 3 Zrotation Xrotation Yrotation
          JOINT WristLeft
          {
            OFFSET -0.515444 -24.763692 -7.413987
            CHANNELS 3 Zrotation Xrotation Yrotation
            JOINT HandLeft
            {
              OFFSET 1.181446 -5.203869 0.045808
              CHANNELS 3 Zrotation Xrotation Yrotation
              JOINT HandTipLeft
              {
                OFFSET -0.147248 -7.550269 -1.647850
                CHANNELS 3 Zrotation Xrotation Yrotation
                End Site
                {
                  OFFSET 0 0 0
                }
              }
              JOINT ThumbLeft
              {
                OFFSET -2.944274 -4.416418 -1.716377
                CHANNELS 3 Zrotation Xrotation Yrotation
                End Site
                {
                  OFFSET 0 0 0
                }
              }
            }
          }
        }
      }
      JOINT ShoulderRight
      {
        OFFSET 15.788619 -3.584252 -2.475823
        CHANNELS 3 Zrotation Xrotation Yrotation
        JOINT ElbowRight
        {
          OFFSET 1.157058 -26.626209 -2.602745
          CHANNELS 3 Zrotation Xrotation Yrotation
          JOINT WristRight
          {
            OFFSET -1.839768 -22.599535 -6.117240
            CHANNELS 3 Zrotation Xrotation Yrotation
            JOINT HandRight
            {
              OFFSET -1.791592 -3.780902 -1.086154
              CHANNELS 3 Zrotation Xrotation Yrotation
              JOINT HandTipRight
              {
                OFFSET 0.616240 -4.824174 -1.503976
                CHANNELS 3 Zrotation Xrotation Yrotation
                End Site
                {
                  OFFSET 0 0 0
                }
              }
              JOINT ThumbRight
              {
                OFFSET 1.947308 -1.559797 -3.425132
                CHANNELS 3 Zrotation Xrotation Yrotation
                End Site
                {
                  OFFSET 0 0 0
                }
              }
            }
          }
        }
      }
    }
  }
  JOINT HipLeft
  {
    OFFSET -7.152881 0.364780 -3.815486
    CHANNELS 3 Zrotation Xrotation Yrotation
    JOINT KneeLeft
    {
      OFFSET -2.755822 -29.794721 2.263168
      CHANNELS 3 Zrotation Xrotation Yrotation
      JOINT AnkleLeft
      {
        OFFSET 3.444456 -37.137315 11.941109
        CHANNELS 3 Zrotation Xrotation Yrotation
        JOINT FootLeft
        {
          OFFSET -1.523444 -8.380353 -7.758589
          CHANNELS 3 Zrotation Xrotation Yrotation
          End Site
          {
            OFFSET 0 0 0
          }
        }
      }
    }
  }
  JOINT HipRight
  {
    OFFSET 7.392624 0.083503 -3.707907
    CHANNELS 3 Zrotation Xrotation Yrotation
    JOINT KneeRight
    {
      OFFSET 4.907114 -30.801986 3.922176
      CHANNELS 3 Zrotation Xrotation Yrotation
      JOINT AnkleRight
      {
        OFFSET 0.142922 -36.026666 14.475620
        CHANNELS 3 Zrotation Xrotation Yrotation
        JOINT FootRight
        {
          OFFSET -1.265562 -7.827499 -6.499628
          CHANNELS 3 Zrotation Xrotation Yrotation
          End Site
          {
            OFFSET 0 0 0
          }
        }
      }
    }
  }
}
MOTION
Frames: 5
Frame Time: 0.033333
-4.606674 74.340952 361.690493 -6.426669 -13.629108 5.770533 0.509031 0.084875 -6.790738 0.013032 -0.089667 -0.246102 5.796844 13.627615 -0.253723 0.000000 0.000000 0.000000 -5.773548 -4.932503 1.970751 2.587822 6.120655 1.895291 15.802385 -13.237488 -9.548764 -0.461872 6.847617 3.570224 0.000000 0.000000 0.000000 0.000000 0.000000 0.000000 1.620437 1.567150 0.181964 -1.086408 3.900442 2.529267 -0.248375 -46.727992 27.959673 34.104079 56.043745 -39.565605 0.000000 0.000000 0.000000 0.000000 0.000000 0.000000 0.987268 12.717509 -6.321048 1.861647 -3.069101 -1.645999 -0.741443 -1.658198 8.398204 0.000000 0.000000 0.000000 12.038297 27.520133 -6.175161 10.263401 -1.347973 4.059885 -12.970800 2.875982 -8.077908 0.000000 0.000000 0.000000
-2.563797 74.355307 360.522607 -7.421117 -14.866763 6.712070 0.269002 -0.094802 -7.960930 0.008448 -0.178572 -0.301073 4.112114 15.846090 -0.019303 0.000000 0.000000 0.000000 -5.530268 -5.259505 2.157935 1.087914 3.755864 2.775353 13.526716 -6.706198 -10.865348 -2.219486 8.657577 5.227796 0.000000 0.000000 0.000000 0.000000 0.000000 0.000000 2.934785 2.692225 0.075056 -2.888103 1.298050 3.396373 1.312722 -40.913386 25.103123 34.488113 55.243392 -39.524016 0.000000 0.000000 0.000000 0.000000 0.000000 0.000000 1.617511 13.970499 -7.445788 0.629787 -3.997115 -2.392380 1.247263 -2.601557 9.497117 0.000000 0.000000 0.000000 12.670761 27.026773 -7.647586 10.475767 -0.496192 3.909105 -12.914875 -1.298448 -6.929496 0.000000 0.000000 0.000000
-0.612893 74.497075 359.374004 -7.993905 -15.987433 7.770007 0.066346 -0.180856 -9.182997 0.017952 -0.233068 -0.336501 0.148592 16.394142 0.621574 0.000000 0.000000 0.000000 -6.257970 -6.353873 2.361796 0.863256 1.909753 3.142405 12.043032 2.190330 -10.726465 -5.303132 6.409074 6.696421 0.000000 0.000000 0.000000 0.000000 0.000000 0.000000 4.052084 3.400581 -0.122876 -4.502704 -0.787692 4.121107 5.868207 -36.593099 23.171838 35.615428 53.218108 -42.639250 0.000000 0.000000 0.000000 0.000000 0.000000 0.000000 1.723592 13.871923 -8.525075 -0.835523 -2.652352 -3.089300 2.960606 -4.681800 11.099281 0.000000 0.000000 0.000000 12.743956 26.525754 -9.088987 10.476285 0.364709 3.617223 -12.972810 -0.366491 -5.627419 0.000000 0.000000 0.000000
0.902080 74.784812 358.438348 -8.389729 -16.986506 8.949131 -0.213690 -0.297706 -10.489956 0.064407 -0.270992 -0.369568 -3.917451 16.555715 1.362520 0.000000 0.000000 0.000000 -7.238279 -7.752177 2.547430 1.713353 1.386187 3.041533 8.304691 9.129942 -9.359029 -3.969039 2.185932 6.536223 0.000000 0.000000 0.000000 0.000000 0.000000 0.000000 5.453797 4.028662 -0.461981 -6.312321 -2.479495 4.829835 12.172851 -34.192603 21.753750 30.257554 51.991575 -41.705383 0.000000 0.000000 0.000000 0.000000 0.000000 0.000000 1.975382 12.934132 -9.724563 -2.814196 0.190750 -3.584839 5.232561 -7.667981 12.338935 0.000000 0.000000 0.000000 13.179396 25.825133 -10.710281 9.639281 0.932642 3.080109 -10.752272 -3.366115 -5.134135 0.000000 0.000000 0.000000
2.506297 75.173122 357.537384 -8.781896 -18.120525 14.010287 -0.177196 -0.246468 -15.713785 0.106751 -0.321560 -0.390217 -7.475418 16.379917 2.039757 0.000000 0.000000 0.000000 -8.548077 -9.268820 2.730678 3.460079 1.464857 2.433154 4.928030 14.283228 -7.587115 -4.258684 -1.324731 6.621715 0.000000 0.000000 0.000000 0.000000 0.000000 0.000000 6.091520 4.833212 -0.655760 -7.476903 -3.790998 5.307390 8.339083 -37.523474 24.656210 46.781193 48.022794 -55.557337 0.000000 0.000000 0.000000 0.000000 0.000000 0.000000 2.093848 12.440747 -14.729723 -3.282420 3.528605 -3.622212 7.258940 -7.878627 12.219380 0.000000 0.000000 0.000000 15.021770 23.397472 -16.529050 9.232823 2.994119 2.756062 -9.494272 -8.578333 -4.337437 0.000000 0.000000 0.000000
